<svg width="25" height="25" viewBox="0 0 25 25" fill="none" xmlns="http://www.w3.org/2000/svg">
<g clip-path="url(#clip0_4997_171)">
<path d="M18 1.93042C16.8739 1.94793 15.7724 2.26227 14.8068 2.84169C13.8411 3.42111 13.0453 4.24509 12.5 5.23042C11.9546 4.24509 11.1589 3.42111 10.1932 2.84169C9.22753 2.26227 8.12604 1.94793 6.99999 1.93042C5.20493 2.00841 3.51369 2.79367 2.29577 4.11465C1.07785 5.43563 0.432238 7.18495 0.499989 8.98042C0.499989 13.5274 5.28599 18.4934 9.29999 21.8604C10.1962 22.6136 11.3293 23.0264 12.5 23.0264C13.6706 23.0264 14.8038 22.6136 15.7 21.8604C19.714 18.4934 24.5 13.5274 24.5 8.98042C24.5677 7.18495 23.9221 5.43563 22.7042 4.11465C21.4863 2.79367 19.795 2.00841 18 1.93042ZM14.415 20.3304C13.879 20.7818 13.2007 21.0293 12.5 21.0293C11.7992 21.0293 11.121 20.7818 10.585 20.3304C5.44699 16.0194 2.49999 11.8834 2.49999 8.98042C2.43163 7.71514 2.86635 6.47415 3.70935 5.52812C4.55235 4.58209 5.73522 4.00777 6.99999 3.93042C8.26476 4.00777 9.44763 4.58209 10.2906 5.52812C11.1336 6.47415 11.5683 7.71514 11.5 8.98042C11.5 9.24564 11.6053 9.49999 11.7929 9.68753C11.9804 9.87506 12.2348 9.98042 12.5 9.98042C12.7652 9.98042 13.0196 9.87506 13.2071 9.68753C13.3946 9.49999 13.5 9.24564 13.5 8.98042C13.4316 7.71514 13.8664 6.47415 14.7094 5.52812C15.5523 4.58209 16.7352 4.00777 18 3.93042C19.2648 4.00777 20.4476 4.58209 21.2906 5.52812C22.1336 6.47415 22.5683 7.71514 22.5 8.98042C22.5 11.8834 19.553 16.0194 14.415 20.3264V20.3304Z" fill="#181818"/>
</g>
<defs>
<clipPath id="clip0_4997_171">
<rect width="24" height="24" fill="white" transform="translate(0.5 0.013916)"/>
</clipPath>
</defs>
</svg>
